<svg width="263" height="37" viewBox="0 0 263 37" fill="none" xmlns="http://www.w3.org/2000/svg">
<path d="M48.8438 34.8828C48.9062 34.9922 48.9375 35.125 48.9375 35.2812C48.9375 35.5156 48.8516 35.7188 48.6797 35.8906C48.5234 36.0625 48.3125 36.1484 48.0469 36.1484C47.875 36.1484 47.7188 36.1094 47.5781 36.0312C47.4531 35.9531 47.3516 35.8359 47.2734 35.6797C46.9766 35.1016 46.7109 34.3828 46.4766 33.5234C46.2578 32.6484 46.0625 31.6797 45.8906 30.6172C45.7344 29.5547 45.6016 28.4141 45.4922 27.1953C45.3984 25.9609 45.3203 24.6875 45.2578 23.375C44.0859 23.5312 42.7656 23.7031 41.2969 23.8906C39.8438 24.0781 38.1797 24.2969 36.3047 24.5469C34.9922 24.7344 33.6562 24.8984 32.2969 25.0391C28.9531 28.6797 25.4297 31.4453 21.7266 33.3359C18.0391 35.2109 14.3359 36.1484 10.6172 36.1484C8.96094 36.1484 7.52344 35.9844 6.30469 35.6562C5.10156 35.3438 4.10156 34.9922 3.30469 34.6016C2.52344 34.1953 1.9375 33.8203 1.54688 33.4766C1.14062 33.1328 0.921875 32.9453 0.890625 32.9141C0.734375 32.7578 0.65625 32.5547 0.65625 32.3047C0.65625 32.0547 0.742188 31.8438 0.914062 31.6719C1.08594 31.5 1.28906 31.4141 1.52344 31.4141C1.78906 31.4141 2.00781 31.5078 2.17969 31.6953C2.21094 31.7266 2.39844 31.8906 2.74219 32.1875C3.08594 32.4688 3.59375 32.7734 4.26562 33.1016C4.95312 33.4297 5.82031 33.7266 6.86719 33.9922C7.91406 34.2578 9.15625 34.3906 10.5938 34.3906C12.5625 34.3906 14.4453 34.125 16.2422 33.5938C18.0391 33.0625 19.7344 32.375 21.3281 31.5312C22.9375 30.6719 24.4297 29.6953 25.8047 28.6016C27.1953 27.5078 28.4531 26.3984 29.5781 25.2734C28.4688 25.3672 27.3672 25.4375 26.2734 25.4844C25.1797 25.5312 24.1016 25.5547 23.0391 25.5547C20.9453 25.5547 18.9531 25.4375 17.0625 25.2031C15.1719 24.9688 13.5078 24.5781 12.0703 24.0312C10.6328 23.4688 9.48438 22.7266 8.625 21.8047C7.78125 20.8828 7.35938 19.7344 7.35938 18.3594C7.35938 17.7344 7.48438 17.1094 7.73438 16.4844C8 15.8594 8.3125 15.2969 8.67188 14.7969C9.03125 14.2812 9.40625 13.8672 9.79688 13.5547C10.1875 13.2266 10.5234 13.0625 10.8047 13.0625C11.0234 13.0625 11.2266 13.1406 11.4141 13.2969C11.6016 13.4531 11.6953 13.6641 11.6953 13.9297C11.6953 14.0703 11.6641 14.2109 11.6016 14.3516C11.5391 14.4766 11.4453 14.5781 11.3203 14.6562C11.2891 14.6875 11.1562 14.7969 10.9219 14.9844C10.6875 15.1719 10.4375 15.4297 10.1719 15.7578C9.90625 16.0703 9.66406 16.4531 9.44531 16.9062C9.22656 17.3438 9.11719 17.8203 9.11719 18.3359C9.11719 19.2266 9.42188 20.0156 10.0312 20.7031C10.6562 21.375 11.5547 21.9453 12.7266 22.4141C13.9141 22.8672 15.3672 23.2109 17.0859 23.4453C18.8047 23.6797 20.7656 23.7969 22.9688 23.7969C24.2344 23.7969 25.5703 23.7578 26.9766 23.6797C28.3828 23.6016 29.8672 23.4844 31.4297 23.3281C32.1797 22.5 32.8438 21.7188 33.4219 20.9844C34 20.25 34.4922 19.5938 34.8984 19.0156C35.5703 18.0625 36.2734 17.0469 37.0078 15.9688C37.7422 14.8906 38.4688 13.7969 39.1875 12.6875C39.9219 11.5781 40.6328 10.4844 41.3203 9.40625C42.0234 8.3125 42.6797 7.28906 43.2891 6.33594C43.8984 5.36719 44.4453 4.49219 44.9297 3.71094C45.4141 2.91406 45.8125 2.25781 46.125 1.74219C46.2188 1.32031 46.3594 0.9375 46.5469 0.59375C46.7344 0.234375 47.0391 0.0546875 47.4609 0.0546875C47.6953 0.0546875 47.9219 0.15625 48.1406 0.359375C48.3594 0.546875 48.4688 0.789062 48.4688 1.08594C48.4688 1.30469 48.3906 1.53906 48.2344 1.78906C48.0781 2.03906 47.9297 2.25 47.7891 2.42188C47.7422 2.71875 47.6641 3.35156 47.5547 4.32031C47.4609 5.28906 47.3594 6.47656 47.25 7.88281C47.1562 9.27344 47.0703 10.8125 46.9922 12.5C46.9297 14.1719 46.8984 15.8672 46.8984 17.5859C46.8984 18.2266 46.8984 18.8594 46.8984 19.4844C46.8984 20.1094 46.9141 20.7422 46.9453 21.3828C49.2891 21.0859 51 20.8828 52.0781 20.7734C53.1562 20.6484 53.7266 20.5859 53.7891 20.5859C53.9922 20.5859 54.1875 20.6719 54.375 20.8438C54.5781 21 54.6797 21.2109 54.6797 21.4766C54.6797 21.6953 54.6016 21.8906 54.4453 22.0625C54.3047 22.2188 54.1172 22.3125 53.8828 22.3438C53.6016 22.375 53.2734 22.4141 52.8984 22.4609C52.5234 22.5078 52.0625 22.5625 51.5156 22.625C50.9688 22.6875 50.3281 22.7656 49.5938 22.8594C48.8594 22.9375 48 23.0391 47.0156 23.1641C47.0625 24.4453 47.1328 25.6797 47.2266 26.8672C47.3359 28.0391 47.4609 29.1328 47.6016 30.1484C47.7578 31.1641 47.9375 32.0781 48.1406 32.8906C48.3438 33.7031 48.5781 34.3672 48.8438 34.8828ZM36.0703 22.7891C37.9141 22.5391 39.5859 22.3203 41.0859 22.1328C42.6016 21.9297 43.9688 21.75 45.1875 21.5938C45.1719 20.9219 45.1562 20.25 45.1406 19.5781C45.1406 18.9062 45.1406 18.2266 45.1406 17.5391C45.1406 15.3359 45.1797 13.2344 45.2578 11.2344C45.3359 9.21875 45.4453 7.46875 45.5859 5.98438C44.9609 6.96875 44.2656 8.0625 43.5 9.26562C42.75 10.4531 41.9688 11.6719 41.1562 12.9219C40.3438 14.1562 39.5234 15.3828 38.6953 16.6016C37.8672 17.8203 37.0781 18.9609 36.3281 20.0234C35.9531 20.5547 35.5703 21.0703 35.1797 21.5703C34.7891 22.0703 34.3984 22.5625 34.0078 23.0469C34.3516 23.0156 34.6875 22.9766 35.0156 22.9297C35.3594 22.8828 35.7109 22.8359 36.0703 22.7891ZM61.2872 32.9141C61.5216 32.4453 61.8184 31.8672 62.1778 31.1797C62.5528 30.4766 62.9356 29.7734 63.3262 29.0703C63.7325 28.3672 64.1231 27.7031 64.4981 27.0781C64.8887 26.4531 65.2169 25.9766 65.4825 25.6484C65.9356 25.1016 66.4044 24.7109 66.8887 24.4766C67.3731 24.2422 67.8184 24.125 68.2247 24.125C68.6309 24.125 68.9747 24.2109 69.2559 24.3828C69.5528 24.5547 69.795 24.7891 69.9825 25.0859C70.17 25.3672 70.3106 25.7031 70.4044 26.0938C70.4981 26.4688 70.545 26.875 70.545 27.3125C70.545 27.5625 70.5294 27.8906 70.4981 28.2969C70.4825 28.7031 70.4591 29.1406 70.4278 29.6094C70.4122 30.0781 70.3887 30.5625 70.3575 31.0625C70.3419 31.5625 70.3262 32.0312 70.3106 32.4688C70.545 32 70.8106 31.4844 71.1075 30.9219C71.4044 30.3438 71.7012 29.7734 71.9981 29.2109C72.3106 28.6484 72.6075 28.125 72.8887 27.6406C73.17 27.1406 73.4278 26.7344 73.6622 26.4219C74.3341 25.5 74.9591 24.8828 75.5372 24.5703C76.1309 24.2578 76.6544 24.1016 77.1075 24.1016C77.6387 24.1016 78.0762 24.2031 78.42 24.4062C78.7637 24.5938 79.0294 24.8438 79.2169 25.1562C79.42 25.4531 79.5606 25.7891 79.6387 26.1641C79.7169 26.5391 79.7559 26.8984 79.7559 27.2422C79.7559 27.7734 79.7169 28.3281 79.6387 28.9062C79.5606 29.4844 79.5216 30.1719 79.5216 30.9688C79.5216 31.2969 79.5372 31.625 79.5684 31.9531C79.5997 32.2812 79.6622 32.5703 79.7559 32.8203C79.8653 33.0703 80.0294 33.2734 80.2481 33.4297C80.4669 33.5859 80.7637 33.6641 81.1387 33.6641C81.545 33.6641 81.9434 33.5625 82.3341 33.3594C82.7247 33.1406 83.0997 32.8594 83.4591 32.5156C83.8184 32.1719 84.1544 31.7812 84.4669 31.3438C84.795 30.9062 85.0919 30.4688 85.3575 30.0312C85.6231 29.5938 85.8575 29.1797 86.0606 28.7891C86.2637 28.3828 86.4278 28.0391 86.5528 27.7578C86.6309 27.5859 86.7403 27.4531 86.8809 27.3594C87.0216 27.2656 87.1778 27.2188 87.3497 27.2188C87.6153 27.2188 87.8262 27.3203 87.9825 27.5234C88.1544 27.7109 88.2403 27.9141 88.2403 28.1328C88.2403 28.2422 88.2169 28.3516 88.17 28.4609C88.1075 28.5859 87.9825 28.8516 87.795 29.2578C87.6075 29.6484 87.3575 30.1016 87.045 30.6172C86.7325 31.1172 86.3653 31.6484 85.9434 32.2109C85.5372 32.7734 85.0841 33.2969 84.5841 33.7812C84.0841 34.25 83.545 34.6406 82.9669 34.9531C82.3887 35.25 81.7794 35.3984 81.1387 35.3984C80.4512 35.3984 79.8887 35.2734 79.4512 35.0234C79.0294 34.7891 78.6856 34.4688 78.42 34.0625C78.17 33.6562 77.9981 33.1875 77.9044 32.6562C77.8106 32.125 77.7637 31.5703 77.7637 30.9922C77.7637 30.2266 77.8028 29.5234 77.8809 28.8828C77.9591 28.2266 77.9981 27.7188 77.9981 27.3594C77.9981 26.9688 77.9591 26.6719 77.8809 26.4688C77.8184 26.2656 77.7325 26.125 77.6231 26.0469C77.5294 25.9531 77.4356 25.9062 77.3419 25.9062C77.2481 25.8906 77.1778 25.8828 77.1309 25.8828C76.7559 25.8828 76.3575 26.0938 75.9356 26.5156C75.5294 26.9219 75.1075 27.4688 74.67 28.1562C74.2325 28.8438 73.7794 29.625 73.3106 30.5C72.8575 31.375 72.3966 32.2656 71.9278 33.1719C71.6622 33.6719 71.4356 34.0859 71.2481 34.4141C71.0762 34.7422 70.9044 35 70.7325 35.1875C70.5762 35.375 70.42 35.5078 70.2637 35.5859C70.1075 35.6641 69.9356 35.7031 69.7481 35.7031C69.3419 35.7031 69.0294 35.5625 68.8106 35.2812C68.6075 35 68.5059 34.6328 68.5059 34.1797C68.5059 33.9453 68.5137 33.6328 68.5294 33.2422C68.545 32.8516 68.5606 32.4219 68.5762 31.9531C68.5919 31.4844 68.6153 31 68.6466 30.5C68.6778 30 68.7012 29.5234 68.7169 29.0703C68.7325 28.6016 68.7481 28.1875 68.7637 27.8281C68.7794 27.4688 68.7872 27.1953 68.7872 27.0078C68.7872 26.6016 68.7169 26.3125 68.5762 26.1406C68.4356 25.9531 68.2716 25.8594 68.0841 25.8594C67.9122 25.8594 67.7169 25.9219 67.4981 26.0469C67.295 26.1719 67.0528 26.4141 66.7716 26.7734C66.5528 27.0547 66.2716 27.4688 65.9278 28.0156C65.5997 28.5469 65.2481 29.1406 64.8731 29.7969C64.4981 30.4531 64.1231 31.125 63.7481 31.8125C63.3887 32.5 63.0762 33.1172 62.8106 33.6641C62.4825 34.3203 62.1544 34.7656 61.8262 35C61.4981 35.25 61.1778 35.375 60.8653 35.375C60.4122 35.375 60.0762 35.2422 59.8575 34.9766C59.6387 34.6953 59.5294 34.3281 59.5294 33.875C59.5294 33.8281 59.5372 33.5469 59.5528 33.0312C59.5841 32.5156 59.6153 31.8906 59.6466 31.1562C59.6778 30.4062 59.7091 29.6094 59.7403 28.7656C59.7872 27.9219 59.8262 27.1328 59.8575 26.3984C59.8731 26.0078 59.8575 25.6484 59.8106 25.3203C59.7637 24.9922 59.7012 24.7969 59.6231 24.7344C59.4981 24.7656 59.2481 25.0547 58.8731 25.6016C58.5137 26.1484 58.0528 27.1016 57.4903 28.4609C57.4122 28.6328 57.295 28.7656 57.1387 28.8594C56.9825 28.9531 56.8184 29 56.6466 29C56.3809 29 56.17 28.9141 56.0137 28.7422C55.8575 28.5547 55.7794 28.3438 55.7794 28.1094C55.7794 28 55.8028 27.8828 55.8497 27.7578C56.5528 26.0859 57.2247 24.8594 57.8653 24.0781C58.5059 23.2812 59.1309 22.8828 59.7403 22.8828C60.0997 22.8828 60.3966 22.9688 60.6309 23.1406C60.8809 23.2969 61.0762 23.5078 61.2169 23.7734C61.3575 24.0234 61.4591 24.3125 61.5216 24.6406C61.5841 24.9688 61.6153 25.2891 61.6153 25.6016C61.6153 26.9922 61.5762 28.2656 61.4981 29.4219C61.4356 30.5781 61.3653 31.7422 61.2872 32.9141ZM106.613 28.4609C106.551 28.5859 106.418 28.8516 106.215 29.2578C106.027 29.6484 105.777 30.1016 105.465 30.6172C105.168 31.1328 104.817 31.6719 104.41 32.2344C104.004 32.7969 103.551 33.3125 103.051 33.7812C102.551 34.25 102.012 34.6406 101.434 34.9531C100.856 35.25 100.246 35.3984 99.6056 35.3984C98.6994 35.3984 97.9337 35.1094 97.3087 34.5312C96.6994 33.9531 96.2541 33.2266 95.9728 32.3516C95.4416 33.2422 94.8087 33.9531 94.0744 34.4844C93.34 35 92.6056 35.2578 91.8712 35.2578C91.2931 35.2578 90.7697 35.1562 90.3009 34.9531C89.8322 34.7344 89.4337 34.4375 89.1056 34.0625C88.7775 33.6719 88.5197 33.2188 88.3322 32.7031C88.1603 32.1875 88.0744 31.625 88.0744 31.0156C88.0744 29.7969 88.2775 28.7266 88.6837 27.8047C89.1056 26.8672 89.6369 26.0859 90.2775 25.4609C90.9181 24.8359 91.6212 24.3672 92.3869 24.0547C93.1681 23.7422 93.9181 23.5859 94.6369 23.5859C95.1212 23.5859 95.5666 23.6562 95.9728 23.7969C96.3791 23.9219 96.7228 24.0625 97.0041 24.2188C97.3009 24.375 97.5275 24.5234 97.6837 24.6641C97.84 24.7891 97.9259 24.8594 97.9416 24.875C98.1134 25.0781 98.1994 25.2891 98.1994 25.5078C98.1994 25.7422 98.1134 25.9531 97.9416 26.1406C97.7697 26.3125 97.5666 26.3984 97.3322 26.3984C97.0822 26.3984 96.8712 26.3125 96.6994 26.1406C96.6681 26.1094 96.5978 26.0547 96.4884 25.9766C96.3791 25.8828 96.2306 25.7891 96.0431 25.6953C95.8556 25.6016 95.6291 25.5234 95.3634 25.4609C95.1134 25.3828 94.8244 25.3438 94.4962 25.3438C94.0119 25.3438 93.4962 25.4531 92.9494 25.6719C92.4025 25.8906 91.9025 26.2344 91.4494 26.7031C90.9962 27.1562 90.6134 27.7344 90.3009 28.4375C90.0041 29.125 89.8556 29.9453 89.8556 30.8984C89.8556 31.1953 89.8869 31.5 89.9494 31.8125C90.0119 32.1094 90.1212 32.3828 90.2775 32.6328C90.4337 32.8828 90.6447 33.0859 90.9103 33.2422C91.1759 33.3984 91.5041 33.4766 91.8947 33.4766C92.1759 33.4766 92.4962 33.3828 92.8556 33.1953C93.2306 33.0078 93.5822 32.7188 93.9103 32.3281C94.2541 31.9375 94.5587 31.4453 94.8244 30.8516C95.1056 30.2578 95.3009 29.5547 95.4103 28.7422C95.4416 28.5234 95.5431 28.3438 95.715 28.2031C95.8869 28.0469 96.09 27.9688 96.3244 27.9688C96.5431 27.9688 96.7306 28.0547 96.8869 28.2266C97.0587 28.3984 97.1525 28.5938 97.1681 28.8125C97.1837 29.1094 97.215 29.5312 97.2619 30.0781C97.3087 30.6094 97.4103 31.1406 97.5666 31.6719C97.7384 32.2031 97.9884 32.6641 98.3166 33.0547C98.6447 33.4453 99.0978 33.6406 99.6759 33.6406C100.051 33.6406 100.418 33.5391 100.777 33.3359C101.152 33.1328 101.512 32.8672 101.856 32.5391C102.215 32.1953 102.551 31.8125 102.863 31.3906C103.192 30.9531 103.488 30.5156 103.754 30.0781C104.02 29.6406 104.254 29.2188 104.457 28.8125C104.66 28.4062 104.832 28.0547 104.973 27.7578C105.051 27.5859 105.16 27.4531 105.301 27.3594C105.457 27.2656 105.621 27.2188 105.793 27.2188C106.059 27.2188 106.27 27.3203 106.426 27.5234C106.598 27.7109 106.684 27.9141 106.684 28.1328C106.684 28.2422 106.66 28.3516 106.613 28.4609ZM112.119 32.8906C112.369 32.375 112.658 31.8125 112.987 31.2031C113.315 30.5781 113.666 29.9531 114.041 29.3281C114.416 28.6875 114.807 28.0547 115.213 27.4297C115.635 26.8047 116.073 26.2109 116.526 25.6484C116.979 25.1016 117.432 24.7109 117.885 24.4766C118.354 24.2266 118.791 24.1016 119.198 24.1016C120.01 24.1016 120.612 24.3984 121.002 24.9922C121.393 25.5859 121.588 26.3203 121.588 27.1953C121.588 27.3984 121.573 27.6484 121.541 27.9453C121.526 28.2266 121.502 28.5312 121.471 28.8594C121.455 29.1875 121.432 29.5234 121.401 29.8672C121.385 30.1953 121.377 30.5078 121.377 30.8047C121.377 31.1797 121.393 31.5391 121.424 31.8828C121.471 32.2266 121.549 32.5312 121.658 32.7969C121.768 33.0469 121.924 33.25 122.127 33.4062C122.33 33.5469 122.596 33.6172 122.924 33.6172C123.518 33.6172 124.096 33.3906 124.658 32.9375C125.221 32.4688 125.737 31.9219 126.205 31.2969C126.69 30.6562 127.104 30.0078 127.448 29.3516C127.807 28.6953 128.073 28.1641 128.244 27.7578C128.323 27.5859 128.432 27.4531 128.573 27.3594C128.729 27.2656 128.893 27.2188 129.065 27.2188C129.33 27.2188 129.541 27.3203 129.698 27.5234C129.869 27.7109 129.955 27.9141 129.955 28.1328C129.955 28.2422 129.932 28.3516 129.885 28.4609C129.823 28.5859 129.698 28.8438 129.51 29.2344C129.323 29.625 129.073 30.0781 128.76 30.5938C128.463 31.0938 128.112 31.6328 127.705 32.2109C127.299 32.7734 126.846 33.2891 126.346 33.7578C125.862 34.2266 125.33 34.6172 124.752 34.9297C124.19 35.2422 123.596 35.3984 122.971 35.3984C122.268 35.3984 121.698 35.2656 121.26 35C120.823 34.7188 120.479 34.3594 120.229 33.9219C119.979 33.4688 119.807 32.9766 119.713 32.4453C119.635 31.8984 119.596 31.3516 119.596 30.8047C119.596 30.5703 119.604 30.3047 119.619 30.0078C119.651 29.7109 119.682 29.3984 119.713 29.0703C119.76 28.7422 119.791 28.4141 119.807 28.0859C119.838 27.7578 119.854 27.4453 119.854 27.1484C119.854 26.6484 119.776 26.3125 119.619 26.1406C119.463 25.9531 119.323 25.8594 119.198 25.8594C118.948 25.8594 118.658 26.0078 118.33 26.3047C118.018 26.5859 117.682 26.9609 117.323 27.4297C116.979 27.8984 116.619 28.4297 116.244 29.0234C115.885 29.6016 115.541 30.1797 115.213 30.7578C114.901 31.3359 114.604 31.8906 114.323 32.4219C114.057 32.9375 113.846 33.3672 113.69 33.7109C113.377 34.3672 113.065 34.8047 112.752 35.0234C112.44 35.2578 112.119 35.375 111.791 35.375C111.338 35.375 110.971 35.2422 110.69 34.9766C110.424 34.6953 110.291 34.3047 110.291 33.8047C110.291 33.6953 110.307 33.4844 110.338 33.1719C110.369 32.8438 110.408 32.4609 110.455 32.0234C110.502 31.5703 110.549 31.0859 110.596 30.5703C110.643 30.0547 110.69 29.5469 110.737 29.0469C110.783 28.5312 110.823 28.0547 110.854 27.6172C110.885 27.1797 110.901 26.8125 110.901 26.5156C110.901 26.125 110.885 25.75 110.854 25.3906C110.823 25.0312 110.76 24.8125 110.666 24.7344C110.526 24.7812 110.276 25.0781 109.916 25.625C109.557 26.1562 109.096 27.1016 108.533 28.4609C108.455 28.6328 108.338 28.7656 108.182 28.8594C108.026 28.9531 107.862 29 107.69 29C107.424 29 107.213 28.9141 107.057 28.7422C106.901 28.5547 106.823 28.3438 106.823 28.1094C106.823 28 106.846 27.8828 106.893 27.7578C107.596 26.0859 108.252 24.8594 108.862 24.0781C109.487 23.2812 110.104 22.8828 110.713 22.8828C111.073 22.8828 111.377 22.9766 111.627 23.1641C111.877 23.3359 112.073 23.5703 112.213 23.8672C112.369 24.1641 112.479 24.4922 112.541 24.8516C112.619 25.2109 112.658 25.5781 112.658 25.9531C112.658 26.2344 112.635 26.6719 112.588 27.2656C112.557 27.8594 112.51 28.5 112.448 29.1875C112.385 29.8594 112.323 30.5312 112.26 31.2031C112.213 31.875 112.166 32.4375 112.119 32.8906Z" fill="black"/>
<path d="M145.28 26.3281C145.186 26.5781 145.069 26.8594 144.928 27.1719C144.803 27.4844 144.655 27.8125 144.483 28.1562C144.342 28.4219 144.194 28.6328 144.038 28.7891C143.897 28.9297 143.709 29 143.475 29C143.209 29 142.998 28.9219 142.842 28.7656C142.686 28.5938 142.608 28.3984 142.608 28.1797C142.608 28.1016 142.616 28.0391 142.631 27.9922C142.647 27.9297 142.686 27.8359 142.748 27.7109C143.155 26.9297 143.452 26.25 143.639 25.6719C143.842 25.0781 144.006 24.4609 144.131 23.8203C144.022 23.4609 143.944 23.1562 143.897 22.9062C143.85 22.6562 143.827 22.3984 143.827 22.1328C143.827 21.6172 143.936 21.2031 144.155 20.8906C144.373 20.5625 144.678 20.3984 145.069 20.3984C145.428 20.3984 145.709 20.5547 145.913 20.8672C146.131 21.1797 146.241 21.5625 146.241 22.0156C146.241 22.2656 146.217 22.5156 146.17 22.7656C146.123 23.0156 146.061 23.3281 145.983 23.7031C146.342 24.5938 146.702 25.3828 147.061 26.0703C147.42 26.7578 147.741 27.3906 148.022 27.9688C148.303 28.5312 148.53 29.0625 148.702 29.5625C148.889 30.0625 148.983 30.5625 148.983 31.0625C148.983 31.7188 148.85 32.3438 148.584 32.9375C148.319 33.5312 147.881 34.0312 147.272 34.4375C147.35 34.4531 147.428 34.4609 147.506 34.4609C147.584 34.4609 147.663 34.4609 147.741 34.4609C148.631 34.4609 149.452 34.2578 150.202 33.8516C150.952 33.4453 151.623 32.9219 152.217 32.2812C152.827 31.625 153.366 30.9062 153.834 30.125C154.303 29.3281 154.709 28.5391 155.053 27.7578C155.209 27.3984 155.428 27.2188 155.709 27.2188C155.975 27.2188 156.178 27.3125 156.319 27.5C156.475 27.6875 156.553 27.8906 156.553 28.1094C156.553 28.2344 156.53 28.3516 156.483 28.4609C156.311 28.8828 156.084 29.3672 155.803 29.9141C155.538 30.4453 155.209 31 154.819 31.5781C154.444 32.1406 154.006 32.6953 153.506 33.2422C153.006 33.7891 152.444 34.2812 151.819 34.7188C151.209 35.1406 150.538 35.4766 149.803 35.7266C149.069 35.9922 148.264 36.125 147.389 36.125C146.342 36.125 145.366 35.9375 144.459 35.5625C143.569 35.2031 142.842 34.6016 142.28 33.7578C142.186 33.6172 142.139 33.4688 142.139 33.3125C142.139 33.0781 142.225 32.875 142.397 32.7031C142.584 32.5156 142.795 32.4219 143.03 32.4219C143.28 32.4219 143.491 32.5078 143.663 32.6797C143.678 32.7109 143.733 32.7656 143.827 32.8438C143.92 32.9062 144.03 32.9844 144.155 33.0781C144.295 33.1562 144.452 33.2266 144.623 33.2891C144.811 33.3516 144.998 33.3828 145.186 33.3828C145.561 33.3828 145.873 33.3047 146.123 33.1484C146.389 32.9922 146.6 32.8047 146.756 32.5859C146.913 32.3516 147.022 32.1094 147.084 31.8594C147.163 31.5938 147.202 31.3672 147.202 31.1797C147.202 30.7891 147.139 30.3984 147.014 30.0078C146.889 29.6172 146.725 29.2266 146.522 28.8359C146.334 28.4453 146.123 28.0469 145.889 27.6406C145.67 27.2188 145.467 26.7812 145.28 26.3281ZM158.637 33.0078C158.887 32.4766 159.176 31.9062 159.504 31.2969C159.833 30.6719 160.184 30.0391 160.559 29.3984C160.934 28.7422 161.333 28.0938 161.754 27.4531C162.176 26.8125 162.614 26.2109 163.067 25.6484C163.52 25.1016 163.973 24.7109 164.426 24.4766C164.895 24.2266 165.333 24.1016 165.739 24.1016C166.145 24.1016 166.497 24.1875 166.793 24.3594C167.106 24.5156 167.356 24.7344 167.543 25.0156C167.747 25.2969 167.895 25.625 167.989 26C168.098 26.375 168.153 26.7812 168.153 27.2188C168.153 27.5781 168.114 28.0625 168.036 28.6719C167.973 29.2656 167.942 29.8906 167.942 30.5469C167.942 30.9219 167.958 31.2969 167.989 31.6719C168.036 32.0312 168.106 32.3594 168.2 32.6562C168.309 32.9375 168.465 33.1719 168.668 33.3594C168.872 33.5312 169.137 33.6172 169.465 33.6172C169.84 33.6172 170.215 33.5156 170.59 33.3125C170.965 33.0938 171.333 32.8125 171.692 32.4688C172.051 32.1094 172.395 31.7188 172.723 31.2969C173.051 30.8594 173.348 30.4297 173.614 30.0078C173.879 29.5703 174.114 29.1562 174.317 28.7656C174.52 28.3594 174.684 28.0234 174.809 27.7578C174.965 27.3984 175.239 27.2188 175.629 27.2188C175.895 27.2188 176.106 27.3125 176.262 27.5C176.418 27.6875 176.497 27.8906 176.497 28.1094C176.497 28.2344 176.473 28.3516 176.426 28.4609C176.364 28.5859 176.239 28.8438 176.051 29.2344C175.879 29.625 175.637 30.0781 175.325 30.5938C175.028 31.1094 174.676 31.6484 174.27 32.2109C173.864 32.7734 173.411 33.2969 172.911 33.7812C172.426 34.25 171.895 34.6406 171.317 34.9531C170.754 35.25 170.161 35.3984 169.536 35.3984C168.817 35.3984 168.239 35.25 167.801 34.9531C167.364 34.6406 167.02 34.25 166.77 33.7812C166.536 33.3125 166.372 32.7891 166.278 32.2109C166.2 31.6328 166.161 31.0703 166.161 30.5234C166.161 30.2422 166.168 29.9453 166.184 29.6328C166.215 29.3047 166.247 28.9844 166.278 28.6719C166.309 28.3594 166.333 28.0703 166.348 27.8047C166.379 27.5234 166.395 27.2891 166.395 27.1016C166.395 26.6172 166.325 26.2891 166.184 26.1172C166.059 25.9453 165.911 25.8594 165.739 25.8594C165.489 25.8594 165.2 26.0078 164.872 26.3047C164.559 26.5859 164.223 26.9609 163.864 27.4297C163.52 27.8984 163.168 28.4297 162.809 29.0234C162.465 29.6016 162.129 30.1797 161.801 30.7578C161.473 31.3359 161.176 31.8906 160.911 32.4219C160.645 32.9375 160.426 33.3672 160.254 33.7109C159.926 34.3672 159.59 34.8047 159.247 35.0234C158.918 35.2578 158.622 35.375 158.356 35.375C157.872 35.375 157.497 35.1875 157.231 34.8125C156.981 34.4219 156.856 33.9531 156.856 33.4062V31.9297C156.856 28.9766 156.856 26.1641 156.856 23.4922C156.872 20.8047 156.911 18.3125 156.973 16.0156C157.051 13.7031 157.168 11.6172 157.325 9.75781C157.497 7.88281 157.747 6.28906 158.075 4.97656C158.403 3.64844 158.817 2.625 159.317 1.90625C159.833 1.1875 160.473 0.828125 161.239 0.828125C161.895 0.828125 162.45 1.00781 162.903 1.36719C163.356 1.72656 163.723 2.21875 164.004 2.84375C164.286 3.45312 164.489 4.17188 164.614 5C164.739 5.8125 164.801 6.67188 164.801 7.57812C164.801 9.42188 164.629 11.2344 164.286 13.0156C163.958 14.7812 163.512 16.5078 162.95 18.1953C162.387 19.8828 161.731 21.5312 160.981 23.1406C160.231 24.7344 159.442 26.2891 158.614 27.8047C158.614 28.0859 158.614 28.4219 158.614 28.8125C158.614 29.2031 158.614 29.5938 158.614 29.9844C158.614 30.375 158.614 30.7422 158.614 31.0859C158.614 31.4297 158.614 31.7031 158.614 31.9062L158.637 33.0078ZM158.637 24.3594C159.293 22.9219 159.887 21.5234 160.418 20.1641C160.965 18.7891 161.426 17.4219 161.801 16.0625C162.192 14.7031 162.497 13.3281 162.715 11.9375C162.934 10.5312 163.043 9.07031 163.043 7.55469C163.043 7.30469 163.028 6.90625 162.997 6.35938C162.981 5.8125 162.911 5.25781 162.786 4.69531C162.676 4.13281 162.497 3.64062 162.247 3.21875C162.012 2.79688 161.676 2.58594 161.239 2.58594C160.895 2.58594 160.598 2.82031 160.348 3.28906C160.098 3.74219 159.879 4.36719 159.692 5.16406C159.504 5.94531 159.348 6.85938 159.223 7.90625C159.098 8.95312 158.997 10.0625 158.918 11.2344C158.84 12.4062 158.778 13.6094 158.731 14.8438C158.7 16.0781 158.676 17.2812 158.661 18.4531C158.645 19.6094 158.637 20.6953 158.637 21.7109C158.637 22.7266 158.637 23.6094 158.637 24.3594ZM194.87 28.4609C194.807 28.5859 194.674 28.8516 194.471 29.2578C194.284 29.6484 194.034 30.1016 193.721 30.6172C193.424 31.1328 193.073 31.6719 192.667 32.2344C192.26 32.7969 191.807 33.3125 191.307 33.7812C190.807 34.25 190.268 34.6406 189.69 34.9531C189.112 35.25 188.503 35.3984 187.862 35.3984C186.956 35.3984 186.19 35.1094 185.565 34.5312C184.956 33.9531 184.51 33.2266 184.229 32.3516C183.698 33.2422 183.065 33.9531 182.331 34.4844C181.596 35 180.862 35.2578 180.128 35.2578C179.549 35.2578 179.026 35.1562 178.557 34.9531C178.088 34.7344 177.69 34.4375 177.362 34.0625C177.034 33.6719 176.776 33.2188 176.588 32.7031C176.417 32.1875 176.331 31.625 176.331 31.0156C176.331 29.7969 176.534 28.7266 176.94 27.8047C177.362 26.8672 177.893 26.0859 178.534 25.4609C179.174 24.8359 179.878 24.3672 180.643 24.0547C181.424 23.7422 182.174 23.5859 182.893 23.5859C183.378 23.5859 183.823 23.6562 184.229 23.7969C184.635 23.9219 184.979 24.0625 185.26 24.2188C185.557 24.375 185.784 24.5234 185.94 24.6641C186.096 24.7891 186.182 24.8594 186.198 24.875C186.37 25.0781 186.456 25.2891 186.456 25.5078C186.456 25.7422 186.37 25.9531 186.198 26.1406C186.026 26.3125 185.823 26.3984 185.588 26.3984C185.338 26.3984 185.128 26.3125 184.956 26.1406C184.924 26.1094 184.854 26.0547 184.745 25.9766C184.635 25.8828 184.487 25.7891 184.299 25.6953C184.112 25.6016 183.885 25.5234 183.62 25.4609C183.37 25.3828 183.081 25.3438 182.753 25.3438C182.268 25.3438 181.753 25.4531 181.206 25.6719C180.659 25.8906 180.159 26.2344 179.706 26.7031C179.253 27.1562 178.87 27.7344 178.557 28.4375C178.26 29.125 178.112 29.9453 178.112 30.8984C178.112 31.1953 178.143 31.5 178.206 31.8125C178.268 32.1094 178.378 32.3828 178.534 32.6328C178.69 32.8828 178.901 33.0859 179.167 33.2422C179.432 33.3984 179.76 33.4766 180.151 33.4766C180.432 33.4766 180.753 33.3828 181.112 33.1953C181.487 33.0078 181.838 32.7188 182.167 32.3281C182.51 31.9375 182.815 31.4453 183.081 30.8516C183.362 30.2578 183.557 29.5547 183.667 28.7422C183.698 28.5234 183.799 28.3438 183.971 28.2031C184.143 28.0469 184.346 27.9688 184.581 27.9688C184.799 27.9688 184.987 28.0547 185.143 28.2266C185.315 28.3984 185.409 28.5938 185.424 28.8125C185.44 29.1094 185.471 29.5312 185.518 30.0781C185.565 30.6094 185.667 31.1406 185.823 31.6719C185.995 32.2031 186.245 32.6641 186.573 33.0547C186.901 33.4453 187.354 33.6406 187.932 33.6406C188.307 33.6406 188.674 33.5391 189.034 33.3359C189.409 33.1328 189.768 32.8672 190.112 32.5391C190.471 32.1953 190.807 31.8125 191.12 31.3906C191.448 30.9531 191.745 30.5156 192.01 30.0781C192.276 29.6406 192.51 29.2188 192.713 28.8125C192.917 28.4062 193.088 28.0547 193.229 27.7578C193.307 27.5859 193.417 27.4531 193.557 27.3594C193.713 27.2656 193.878 27.2188 194.049 27.2188C194.315 27.2188 194.526 27.3203 194.682 27.5234C194.854 27.7109 194.94 27.9141 194.94 28.1328C194.94 28.2422 194.917 28.3516 194.87 28.4609ZM197.633 25.3672C197.571 25.7891 197.493 26.1875 197.399 26.5625C197.305 26.9219 197.212 27.2422 197.118 27.5234C197.04 27.7891 196.969 28.0078 196.907 28.1797C196.844 28.3516 196.805 28.4453 196.79 28.4609C196.633 28.8203 196.36 29 195.969 29C195.751 29 195.548 28.9219 195.36 28.7656C195.173 28.5938 195.079 28.3828 195.079 28.1328C195.079 28.0391 195.094 27.9688 195.126 27.9219C195.157 27.875 195.204 27.7812 195.266 27.6406C195.329 27.5 195.407 27.2656 195.501 26.9375C195.594 26.6094 195.712 26.1016 195.852 25.4141C195.587 25.4141 195.313 25.4062 195.032 25.3906C194.751 25.375 194.493 25.3203 194.258 25.2266C194.008 25.1328 193.805 24.9844 193.649 24.7812C193.493 24.5781 193.415 24.2969 193.415 23.9375C193.415 23.6719 193.493 23.3125 193.649 22.8594C193.79 22.4062 193.985 21.9609 194.235 21.5234C194.485 21.0859 194.766 20.7109 195.079 20.3984C195.391 20.0703 195.704 19.9062 196.016 19.9062C196.376 19.9062 196.665 20.0391 196.883 20.3047C197.118 20.5703 197.298 20.8984 197.423 21.2891C197.548 21.6641 197.633 22.0625 197.68 22.4844C197.743 22.9062 197.774 23.2734 197.774 23.5859C198.04 23.5859 198.298 23.5859 198.548 23.5859C198.813 23.5703 199.063 23.5625 199.298 23.5625C200.188 23.5625 200.868 23.7578 201.337 24.1484C201.805 24.5391 202.04 25.1797 202.04 26.0703C202.04 26.4297 202.016 26.8047 201.969 27.1953C201.923 27.5859 201.868 27.9922 201.805 28.4141C201.743 28.8203 201.688 29.2266 201.641 29.6328C201.594 30.0391 201.571 30.4375 201.571 30.8281C201.571 31.3906 201.649 31.8594 201.805 32.2344C201.962 32.5938 202.157 32.8828 202.391 33.1016C202.626 33.3203 202.876 33.4766 203.141 33.5703C203.407 33.6484 203.649 33.6875 203.868 33.6875C204.54 33.6875 205.173 33.4688 205.766 33.0312C206.36 32.5938 206.907 32.0703 207.407 31.4609C207.907 30.8359 208.352 30.1797 208.743 29.4922C209.149 28.8047 209.485 28.2031 209.751 27.6875C209.829 27.5469 209.938 27.4375 210.079 27.3594C210.219 27.2812 210.368 27.2422 210.524 27.2422C210.805 27.2422 211.024 27.3359 211.18 27.5234C211.337 27.6953 211.415 27.8906 211.415 28.1094C211.415 28.2656 211.383 28.4062 211.321 28.5312C210.962 29.1719 210.54 29.8984 210.055 30.7109C209.587 31.5078 209.048 32.2578 208.438 32.9609C207.829 33.6641 207.141 34.2578 206.376 34.7422C205.626 35.2266 204.798 35.4688 203.891 35.4688C203.329 35.4688 202.798 35.3594 202.298 35.1406C201.798 34.9375 201.36 34.6406 200.985 34.25C200.626 33.8438 200.337 33.3516 200.118 32.7734C199.899 32.1797 199.79 31.5156 199.79 30.7812C199.79 30 199.868 29.2266 200.024 28.4609C200.18 27.6797 200.258 26.9375 200.258 26.2344C200.258 25.9375 200.188 25.7188 200.048 25.5781C199.923 25.4219 199.633 25.3438 199.18 25.3438C198.962 25.3438 198.719 25.3438 198.454 25.3438C198.204 25.3438 197.93 25.3516 197.633 25.3672ZM196.063 23.6328C196.063 23.5234 196.055 23.3828 196.04 23.2109C196.04 23.0234 196.024 22.8438 195.993 22.6719C195.977 22.5 195.946 22.3516 195.899 22.2266C195.868 22.1016 195.829 22.0391 195.782 22.0391C195.735 22.0391 195.673 22.1016 195.594 22.2266C195.532 22.3359 195.462 22.4766 195.383 22.6484C195.305 22.8047 195.235 22.9766 195.173 23.1641C195.11 23.3516 195.063 23.5078 195.032 23.6328H196.063ZM217.085 32.9141C217.319 32.4453 217.616 31.8672 217.975 31.1797C218.35 30.4766 218.733 29.7734 219.124 29.0703C219.53 28.3672 219.921 27.7031 220.296 27.0781C220.686 26.4531 221.014 25.9766 221.28 25.6484C221.733 25.1016 222.202 24.7109 222.686 24.4766C223.171 24.2422 223.616 24.125 224.022 24.125C224.428 24.125 224.772 24.2109 225.053 24.3828C225.35 24.5547 225.592 24.7891 225.78 25.0859C225.967 25.3672 226.108 25.7031 226.202 26.0938C226.296 26.4688 226.342 26.875 226.342 27.3125C226.342 27.5625 226.327 27.8906 226.296 28.2969C226.28 28.7031 226.257 29.1406 226.225 29.6094C226.21 30.0781 226.186 30.5625 226.155 31.0625C226.139 31.5625 226.124 32.0312 226.108 32.4688C226.342 32 226.608 31.4844 226.905 30.9219C227.202 30.3438 227.499 29.7734 227.796 29.2109C228.108 28.6484 228.405 28.125 228.686 27.6406C228.967 27.1406 229.225 26.7344 229.46 26.4219C230.132 25.5 230.757 24.8828 231.335 24.5703C231.928 24.2578 232.452 24.1016 232.905 24.1016C233.436 24.1016 233.874 24.2031 234.217 24.4062C234.561 24.5938 234.827 24.8438 235.014 25.1562C235.217 25.4531 235.358 25.7891 235.436 26.1641C235.514 26.5391 235.553 26.8984 235.553 27.2422C235.553 27.7734 235.514 28.3281 235.436 28.9062C235.358 29.4844 235.319 30.1719 235.319 30.9688C235.319 31.2969 235.335 31.625 235.366 31.9531C235.397 32.2812 235.46 32.5703 235.553 32.8203C235.663 33.0703 235.827 33.2734 236.046 33.4297C236.264 33.5859 236.561 33.6641 236.936 33.6641C237.342 33.6641 237.741 33.5625 238.132 33.3594C238.522 33.1406 238.897 32.8594 239.257 32.5156C239.616 32.1719 239.952 31.7812 240.264 31.3438C240.592 30.9062 240.889 30.4688 241.155 30.0312C241.421 29.5938 241.655 29.1797 241.858 28.7891C242.061 28.3828 242.225 28.0391 242.35 27.7578C242.428 27.5859 242.538 27.4531 242.678 27.3594C242.819 27.2656 242.975 27.2188 243.147 27.2188C243.413 27.2188 243.624 27.3203 243.78 27.5234C243.952 27.7109 244.038 27.9141 244.038 28.1328C244.038 28.2422 244.014 28.3516 243.967 28.4609C243.905 28.5859 243.78 28.8516 243.592 29.2578C243.405 29.6484 243.155 30.1016 242.842 30.6172C242.53 31.1172 242.163 31.6484 241.741 32.2109C241.335 32.7734 240.882 33.2969 240.382 33.7812C239.882 34.25 239.342 34.6406 238.764 34.9531C238.186 35.25 237.577 35.3984 236.936 35.3984C236.249 35.3984 235.686 35.2734 235.249 35.0234C234.827 34.7891 234.483 34.4688 234.217 34.0625C233.967 33.6562 233.796 33.1875 233.702 32.6562C233.608 32.125 233.561 31.5703 233.561 30.9922C233.561 30.2266 233.6 29.5234 233.678 28.8828C233.757 28.2266 233.796 27.7188 233.796 27.3594C233.796 26.9688 233.757 26.6719 233.678 26.4688C233.616 26.2656 233.53 26.125 233.421 26.0469C233.327 25.9531 233.233 25.9062 233.139 25.9062C233.046 25.8906 232.975 25.8828 232.928 25.8828C232.553 25.8828 232.155 26.0938 231.733 26.5156C231.327 26.9219 230.905 27.4688 230.467 28.1562C230.03 28.8438 229.577 29.625 229.108 30.5C228.655 31.375 228.194 32.2656 227.725 33.1719C227.46 33.6719 227.233 34.0859 227.046 34.4141C226.874 34.7422 226.702 35 226.53 35.1875C226.374 35.375 226.217 35.5078 226.061 35.5859C225.905 35.6641 225.733 35.7031 225.546 35.7031C225.139 35.7031 224.827 35.5625 224.608 35.2812C224.405 35 224.303 34.6328 224.303 34.1797C224.303 33.9453 224.311 33.6328 224.327 33.2422C224.342 32.8516 224.358 32.4219 224.374 31.9531C224.389 31.4844 224.413 31 224.444 30.5C224.475 30 224.499 29.5234 224.514 29.0703C224.53 28.6016 224.546 28.1875 224.561 27.8281C224.577 27.4688 224.585 27.1953 224.585 27.0078C224.585 26.6016 224.514 26.3125 224.374 26.1406C224.233 25.9531 224.069 25.8594 223.882 25.8594C223.71 25.8594 223.514 25.9219 223.296 26.0469C223.092 26.1719 222.85 26.4141 222.569 26.7734C222.35 27.0547 222.069 27.4688 221.725 28.0156C221.397 28.5469 221.046 29.1406 220.671 29.7969C220.296 30.4531 219.921 31.125 219.546 31.8125C219.186 32.5 218.874 33.1172 218.608 33.6641C218.28 34.3203 217.952 34.7656 217.624 35C217.296 35.25 216.975 35.375 216.663 35.375C216.21 35.375 215.874 35.2422 215.655 34.9766C215.436 34.6953 215.327 34.3281 215.327 33.875C215.327 33.8281 215.335 33.5469 215.35 33.0312C215.382 32.5156 215.413 31.8906 215.444 31.1562C215.475 30.4062 215.507 29.6094 215.538 28.7656C215.585 27.9219 215.624 27.1328 215.655 26.3984C215.671 26.0078 215.655 25.6484 215.608 25.3203C215.561 24.9922 215.499 24.7969 215.421 24.7344C215.296 24.7656 215.046 25.0547 214.671 25.6016C214.311 26.1484 213.85 27.1016 213.288 28.4609C213.21 28.6328 213.092 28.7656 212.936 28.8594C212.78 28.9531 212.616 29 212.444 29C212.178 29 211.967 28.9141 211.811 28.7422C211.655 28.5547 211.577 28.3438 211.577 28.1094C211.577 28 211.6 27.8828 211.647 27.7578C212.35 26.0859 213.022 24.8594 213.663 24.0781C214.303 23.2812 214.928 22.8828 215.538 22.8828C215.897 22.8828 216.194 22.9688 216.428 23.1406C216.678 23.2969 216.874 23.5078 217.014 23.7734C217.155 24.0234 217.257 24.3125 217.319 24.6406C217.382 24.9688 217.413 25.2891 217.413 25.6016C217.413 26.9922 217.374 28.2656 217.296 29.4219C217.233 30.5781 217.163 31.7422 217.085 32.9141ZM262.411 28.4609C262.348 28.5859 262.216 28.8516 262.012 29.2578C261.825 29.6484 261.575 30.1016 261.262 30.6172C260.966 31.1328 260.614 31.6719 260.208 32.2344C259.802 32.7969 259.348 33.3125 258.848 33.7812C258.348 34.25 257.809 34.6406 257.231 34.9531C256.653 35.25 256.044 35.3984 255.403 35.3984C254.497 35.3984 253.731 35.1094 253.106 34.5312C252.497 33.9531 252.052 33.2266 251.77 32.3516C251.239 33.2422 250.606 33.9531 249.872 34.4844C249.137 35 248.403 35.2578 247.669 35.2578C247.091 35.2578 246.567 35.1562 246.098 34.9531C245.63 34.7344 245.231 34.4375 244.903 34.0625C244.575 33.6719 244.317 33.2188 244.13 32.7031C243.958 32.1875 243.872 31.625 243.872 31.0156C243.872 29.7969 244.075 28.7266 244.481 27.8047C244.903 26.8672 245.434 26.0859 246.075 25.4609C246.716 24.8359 247.419 24.3672 248.184 24.0547C248.966 23.7422 249.716 23.5859 250.434 23.5859C250.919 23.5859 251.364 23.6562 251.77 23.7969C252.177 23.9219 252.52 24.0625 252.802 24.2188C253.098 24.375 253.325 24.5234 253.481 24.6641C253.637 24.7891 253.723 24.8594 253.739 24.875C253.911 25.0781 253.997 25.2891 253.997 25.5078C253.997 25.7422 253.911 25.9531 253.739 26.1406C253.567 26.3125 253.364 26.3984 253.13 26.3984C252.88 26.3984 252.669 26.3125 252.497 26.1406C252.466 26.1094 252.395 26.0547 252.286 25.9766C252.177 25.8828 252.028 25.7891 251.841 25.6953C251.653 25.6016 251.427 25.5234 251.161 25.4609C250.911 25.3828 250.622 25.3438 250.294 25.3438C249.809 25.3438 249.294 25.4531 248.747 25.6719C248.2 25.8906 247.7 26.2344 247.247 26.7031C246.794 27.1562 246.411 27.7344 246.098 28.4375C245.802 29.125 245.653 29.9453 245.653 30.8984C245.653 31.1953 245.684 31.5 245.747 31.8125C245.809 32.1094 245.919 32.3828 246.075 32.6328C246.231 32.8828 246.442 33.0859 246.708 33.2422C246.973 33.3984 247.302 33.4766 247.692 33.4766C247.973 33.4766 248.294 33.3828 248.653 33.1953C249.028 33.0078 249.38 32.7188 249.708 32.3281C250.052 31.9375 250.356 31.4453 250.622 30.8516C250.903 30.2578 251.098 29.5547 251.208 28.7422C251.239 28.5234 251.341 28.3438 251.512 28.2031C251.684 28.0469 251.887 27.9688 252.122 27.9688C252.341 27.9688 252.528 28.0547 252.684 28.2266C252.856 28.3984 252.95 28.5938 252.966 28.8125C252.981 29.1094 253.012 29.5312 253.059 30.0781C253.106 30.6094 253.208 31.1406 253.364 31.6719C253.536 32.2031 253.786 32.6641 254.114 33.0547C254.442 33.4453 254.895 33.6406 255.473 33.6406C255.848 33.6406 256.216 33.5391 256.575 33.3359C256.95 33.1328 257.309 32.8672 257.653 32.5391C258.012 32.1953 258.348 31.8125 258.661 31.3906C258.989 30.9531 259.286 30.5156 259.552 30.0781C259.817 29.6406 260.052 29.2188 260.255 28.8125C260.458 28.4062 260.63 28.0547 260.77 27.7578C260.848 27.5859 260.958 27.4531 261.098 27.3594C261.255 27.2656 261.419 27.2188 261.591 27.2188C261.856 27.2188 262.067 27.3203 262.223 27.5234C262.395 27.7109 262.481 27.9141 262.481 28.1328C262.481 28.2422 262.458 28.3516 262.411 28.4609Z" fill="#A61313"/>
</svg>
